<!-- Red, ochre or black paint on buff clay, with wavy lines and zigzags, like the painted pots of the Naqada period. 128 by 128. Drawn by tools/amulet-sets/. -->
<svg xmlns="http://www.w3.org/2000/svg" viewBox="0 0 128 128" width="128" height="128">
<defs><filter id="sh" filterUnits="userSpaceOnUse" x="-50" y="-50" width="228" height="228"><feDropShadow dx="0" dy="4" stdDeviation="3" flood-color="#190c00" flood-opacity=".5"/></filter><radialGradient id="clay" cx=".4" cy=".35" r=".75"><stop offset="0" stop-color="#ecd2a4"/><stop offset="1" stop-color="#c49a66"/></radialGradient><pattern id="wave" width="16" height="10" patternUnits="userSpaceOnUse"><path d="M0 5 Q4 0 8 5 T16 5" fill="none" stroke="#b07a1a" stroke-width="2.6"/></pattern><pattern id="zz" width="10" height="10" patternUnits="userSpaceOnUse" patternTransform="rotate(90)"><path d="M0 5 Q2.5 0 5 5 T10 5" fill="none" stroke="#b07a1a" stroke-width="2.4"/></pattern></defs>
<g filter="url(#sh)"><path d="M100.0 64.0 L122.0 64.0 M95.2 82.0 L114.2 93.0 M82.0 95.2 L93.0 114.2 M64.0 100.0 L64.0 122.0 M46.0 95.2 L35.0 114.2 M32.8 82.0 L13.8 93.0 M28.0 64.0 L6.0 64.0 M32.8 46.0 L13.8 35.0 M46.0 32.8 L35.0 13.8 M64.0 28.0 L64.0 6.0 M82.0 32.8 L93.0 13.8 M95.2 46.0 L114.2 35.0" fill="none" stroke="#b07a1a" stroke-width="16" stroke-linecap="round" stroke-linejoin="round"/><path d="M64 32 A32 32 0 1 1 64 96 A32 32 0 1 1 64 32 Z" fill="#b07a1a" stroke="#b07a1a" stroke-width="10" stroke-linejoin="round"/><path d="M55 45 A10 10 0 1 1 55 65 A10 10 0 1 1 55 45 Z" fill="#b07a1a" stroke="#b07a1a" stroke-width="10" stroke-linejoin="round"/></g>
<path d="M100.0 64.0 L122.0 64.0 M95.2 82.0 L114.2 93.0 M82.0 95.2 L93.0 114.2 M64.0 100.0 L64.0 122.0 M46.0 95.2 L35.0 114.2 M32.8 82.0 L13.8 93.0 M28.0 64.0 L6.0 64.0 M32.8 46.0 L13.8 35.0 M46.0 32.8 L35.0 13.8 M64.0 28.0 L64.0 6.0 M82.0 32.8 L93.0 13.8 M95.2 46.0 L114.2 35.0" fill="none" stroke="#b07a1a" stroke-width="6" stroke-linecap="round"/><path d="M64 32 A32 32 0 1 1 64 96 A32 32 0 1 1 64 32 Z" fill="url(#clay)"/><path d="M64 32 A32 32 0 1 1 64 96 A32 32 0 1 1 64 32 Z" fill="url(#wave)" transform="translate(64 64) scale(.82) translate(-64 -64)"/><path d="M64 32 A32 32 0 1 1 64 96 A32 32 0 1 1 64 32 Z" fill="none" stroke="#b07a1a" stroke-width="3"/><path d="M55 45 A10 10 0 1 1 55 65 A10 10 0 1 1 55 45 Z" fill="url(#clay)"/><path d="M55 45 A10 10 0 1 1 55 65 A10 10 0 1 1 55 45 Z" fill="url(#zz)" transform="translate(64 64) scale(.82) translate(-64 -64)"/><path d="M55 45 A10 10 0 1 1 55 65 A10 10 0 1 1 55 45 Z" fill="none" stroke="#b07a1a" stroke-width="3"/>
</svg>
