<!-- Paint in the amulet's own colour on buff clay, with wavy lines and zigzags, like the painted pots of the Naqada period. 128 by 128. Drawn by tools/amulet-sets/. -->
<svg xmlns="http://www.w3.org/2000/svg" viewBox="0 0 128 128" width="128" height="128">
<defs><filter id="sh" filterUnits="userSpaceOnUse" x="-50" y="-50" width="228" height="228"><feDropShadow dx="0" dy="4" stdDeviation="3" flood-color="#190c00" flood-opacity=".5"/></filter><radialGradient id="clay" cx=".4" cy=".35" r=".75"><stop offset="0" stop-color="#ecd2a4"/><stop offset="1" stop-color="#c49a66"/></radialGradient><pattern id="wave" width="16" height="10" patternUnits="userSpaceOnUse"><path d="M0 5 Q4 0 8 5 T16 5" fill="none" stroke="#786749" stroke-width="2.6"/></pattern><pattern id="zz" width="10" height="10" patternUnits="userSpaceOnUse" patternTransform="rotate(90)"><path d="M0 5 Q2.5 0 5 5 T10 5" fill="none" stroke="#786749" stroke-width="2.4"/></pattern></defs>
<g filter="url(#sh)"><path d="M40 28 C56 20 80 24 92 42 L114 80 C118 90 112 98 102 96 L86 92 C78 104 66 112 54 108 C42 104 36 90 38 76 C34 60 32 40 40 28 Z" fill="#786749" stroke="#786749" stroke-width="10" stroke-linejoin="round"/><path d="M54 46 C38 38 20 48 22 66 C24 82 42 88 52 78 C60 70 56 58 46 58 C38 58 38 68 44 70" fill="none" stroke="#786749" stroke-width="18" stroke-linecap="round" stroke-linejoin="round"/><path d="M76 48.5 A3.5 3.5 0 1 1 76 55.5 A3.5 3.5 0 1 1 76 48.5 Z" fill="#786749" stroke="#786749" stroke-width="10" stroke-linejoin="round"/></g>
<path d="M40 28 C56 20 80 24 92 42 L114 80 C118 90 112 98 102 96 L86 92 C78 104 66 112 54 108 C42 104 36 90 38 76 C34 60 32 40 40 28 Z" fill="url(#clay)"/><path d="M40 28 C56 20 80 24 92 42 L114 80 C118 90 112 98 102 96 L86 92 C78 104 66 112 54 108 C42 104 36 90 38 76 C34 60 32 40 40 28 Z" fill="url(#wave)" transform="translate(64 64) scale(.82) translate(-64 -64)"/><path d="M40 28 C56 20 80 24 92 42 L114 80 C118 90 112 98 102 96 L86 92 C78 104 66 112 54 108 C42 104 36 90 38 76 C34 60 32 40 40 28 Z" fill="none" stroke="#786749" stroke-width="3"/><path d="M54 46 C38 38 20 48 22 66 C24 82 42 88 52 78 C60 70 56 58 46 58 C38 58 38 68 44 70" fill="none" stroke="#786749" stroke-width="8" stroke-linecap="round"/><path d="M76 48.5 A3.5 3.5 0 1 1 76 55.5 A3.5 3.5 0 1 1 76 48.5 Z" fill="#786749"/>
</svg>
