<!-- A broad collar, the wesekh: rows of turquoise, gold and carnelian beads in a half circle, drop beads along the edge, and a clasp at each end. 128 by 128. Drawn by tools/amulets/. -->
<svg xmlns="http://www.w3.org/2000/svg" viewBox="0 0 128 128" width="128" height="128">
<defs>
	<filter id="sh" filterUnits="userSpaceOnUse" x="-50" y="-50" width="228" height="228"><feDropShadow dx="0" dy="5" stdDeviation="4" flood-color="#190c00" flood-opacity=".55"/></filter>
	<linearGradient id="turq" gradientUnits="userSpaceOnUse" x1="24" y1="6" x2="104" y2="120"><stop offset="0" stop-color="#d8fff8"/><stop offset=".35" stop-color="#6ed0c4"/><stop offset=".72" stop-color="#38a8a0"/><stop offset="1" stop-color="#1f6a64"/></linearGradient>
	<linearGradient id="gold" gradientUnits="userSpaceOnUse" x1="24" y1="6" x2="104" y2="120"><stop offset="0" stop-color="#fffbd8"/><stop offset=".35" stop-color="#f5d04e"/><stop offset=".72" stop-color="#c08a1c"/><stop offset="1" stop-color="#6e4608"/></linearGradient>
	<linearGradient id="carn" gradientUnits="userSpaceOnUse" x1="24" y1="6" x2="104" y2="120"><stop offset="0" stop-color="#ffc0b0"/><stop offset=".35" stop-color="#e0604a"/><stop offset=".72" stop-color="#b83a22"/><stop offset="1" stop-color="#7a1f12"/></linearGradient>
</defs>
<path d="M14 34 A50 50 0 0 0 114 34 H84 A20 20 0 0 1 44 34 Z" fill="#2a1703" fill-rule="nonzero" stroke="#2a1703" stroke-width="9" stroke-linejoin="round" stroke-linecap="round" filter="url(#sh)"/>
<g fill="url(#carn)" stroke="#2a1703" stroke-width="2.6" stroke-linejoin="round"><path transform="translate(12.4 40.3) rotate(83.1)" d="M-5 -2 C-5 6 -2 12 0 14 C2 12 5 6 5 -2 Z"/><path transform="translate(15.4 52.4) rotate(69.2)" d="M-5 -2 C-5 6 -2 12 0 14 C2 12 5 6 5 -2 Z"/><path transform="translate(21.2 63.5) rotate(55.4)" d="M-5 -2 C-5 6 -2 12 0 14 C2 12 5 6 5 -2 Z"/><path transform="translate(29.5 72.9) rotate(41.5)" d="M-5 -2 C-5 6 -2 12 0 14 C2 12 5 6 5 -2 Z"/><path transform="translate(39.8 80.0) rotate(27.7)" d="M-5 -2 C-5 6 -2 12 0 14 C2 12 5 6 5 -2 Z"/><path transform="translate(51.6 84.5) rotate(13.8)" d="M-5 -2 C-5 6 -2 12 0 14 C2 12 5 6 5 -2 Z"/><path transform="translate(64.0 86.0) rotate(-0.0)" d="M-5 -2 C-5 6 -2 12 0 14 C2 12 5 6 5 -2 Z"/><path transform="translate(76.4 84.5) rotate(-13.8)" d="M-5 -2 C-5 6 -2 12 0 14 C2 12 5 6 5 -2 Z"/><path transform="translate(88.2 80.0) rotate(-27.7)" d="M-5 -2 C-5 6 -2 12 0 14 C2 12 5 6 5 -2 Z"/><path transform="translate(98.5 72.9) rotate(-41.5)" d="M-5 -2 C-5 6 -2 12 0 14 C2 12 5 6 5 -2 Z"/><path transform="translate(106.8 63.5) rotate(-55.4)" d="M-5 -2 C-5 6 -2 12 0 14 C2 12 5 6 5 -2 Z"/><path transform="translate(112.6 52.4) rotate(-69.2)" d="M-5 -2 C-5 6 -2 12 0 14 C2 12 5 6 5 -2 Z"/><path transform="translate(115.6 40.3) rotate(-83.1)" d="M-5 -2 C-5 6 -2 12 0 14 C2 12 5 6 5 -2 Z"/></g>
<path d="M14 34 A50 50 0 0 0 114 34 H84 A20 20 0 0 1 44 34 Z" fill="url(#turq)" stroke="#2a1703" stroke-width="5" stroke-linejoin="round"/>
<path d="M37 34 A27 27 0 0 0 91 34" fill="none" stroke="#2a1703" stroke-width="9"/>
<path d="M37 34 A27 27 0 0 0 91 34" fill="none" stroke="url(#gold)" stroke-width="6" stroke-dasharray="4 2"/>
<path d="M29 34 A35 35 0 0 0 99 34" fill="none" stroke="#2a1703" stroke-width="8"/>
<path d="M29 34 A35 35 0 0 0 99 34" fill="none" stroke="#2f6fc0" stroke-width="5" stroke-dasharray="4 2"/>
<path d="M21 34 A43 43 0 0 0 107 34" fill="none" stroke="#2a1703" stroke-width="8"/>
<path d="M21 34 A43 43 0 0 0 107 34" fill="none" stroke="url(#gold)" stroke-width="5" stroke-dasharray="4 2"/>
<path d="M12 22 H46 V38 H12 Z" fill="url(#gold)" stroke="#2a1703" stroke-width="4" stroke-linejoin="round"/>
<circle cx="29" cy="30" r="3" fill="#b83a22" stroke="#2a1703" stroke-width="1.6"/>
<path d="M82 22 H116 V38 H82 Z" fill="url(#gold)" stroke="#2a1703" stroke-width="4" stroke-linejoin="round"/>
<circle cx="99" cy="30" r="3" fill="#b83a22" stroke="#2a1703" stroke-width="1.6"/>
<path d="M24 52 C34 66 48 74 60 76" fill="none" stroke="#fffbe0" stroke-width="3.5" stroke-linecap="round" stroke-linejoin="round" opacity=".7"/>
</svg>
