<svg xmlns="http://www.w3.org/2000/svg" viewBox="0 0 128 128" width="128" height="128"><defs><filter id="s1" filterUnits="userSpaceOnUse" x="-50" y="-50" width="228" height="228"><feDropShadow dx="0" dy="5" stdDeviation="4" flood-color="#190c00" flood-opacity="0.55"/></filter><linearGradient id="g2" gradientUnits="userSpaceOnUse" x1="20" y1="40" x2="70" y2="110" gradientTransform="matrix(1 0 0 1 0 0)"><stop offset="0" stop-color="#fdecb8"/><stop offset="1" stop-color="#dcb265"/></linearGradient><linearGradient id="g3" gradientUnits="userSpaceOnUse" x1="70" y1="40" x2="116" y2="110" gradientTransform="matrix(1 0 0 1 0 0)"><stop offset="0" stop-color="#c0914a"/><stop offset="1" stop-color="#7e5520"/></linearGradient><linearGradient id="g4" gradientUnits="userSpaceOnUse" x1="56" y1="12" x2="72" y2="28" gradientTransform="matrix(1 0 0 1 0 0)"><stop offset="0" stop-color="#fff4b8"/><stop offset="0.35" stop-color="#e8b93e"/><stop offset="0.72" stop-color="#a8741c"/><stop offset="1" stop-color="#5e3c06"/></linearGradient><radialGradient id="g5" gradientUnits="userSpaceOnUse" fx="64" fy="14" fr="0" cx="64" cy="14" r="14" gradientTransform="matrix(1 0 0 1 0 0)"><stop offset="0" stop-color="#fffff0" stop-opacity="0.95"/><stop offset="1" stop-color="#fff0b4" stop-opacity="0"/></radialGradient></defs><path d="M64 12L116 110L12 110Z" fill="none" stroke="#4a2e0c" stroke-width="6" stroke-linecap="round" stroke-linejoin="round" filter="url(#s1)"/><path d="M64 12L12 110L74 110Z" fill="url(#g2)"/><path d="M64 12L74 110L116 110Z" fill="url(#g3)"/><path d="M56.57 26L65.43 26L71.43 26" fill="none" stroke="#4a2e0c" stroke-opacity="0.28" stroke-width="1.5" stroke-linecap="round" stroke-linejoin="round"/><path d="M49.14 40L66.86 40L78.86 40" fill="none" stroke="#4a2e0c" stroke-opacity="0.28" stroke-width="1.5" stroke-linecap="round" stroke-linejoin="round"/><path d="M41.71 54L68.29 54L86.29 54" fill="none" stroke="#4a2e0c" stroke-opacity="0.28" stroke-width="1.5" stroke-linecap="round" stroke-linejoin="round"/><path d="M34.29 68L69.71 68L93.71 68" fill="none" stroke="#4a2e0c" stroke-opacity="0.28" stroke-width="1.5" stroke-linecap="round" stroke-linejoin="round"/><path d="M26.86 82L71.14 82L101.14 82" fill="none" stroke="#4a2e0c" stroke-opacity="0.28" stroke-width="1.5" stroke-linecap="round" stroke-linejoin="round"/><path d="M19.43 96L72.57 96L108.57 96" fill="none" stroke="#4a2e0c" stroke-opacity="0.28" stroke-width="1.5" stroke-linecap="round" stroke-linejoin="round"/><path d="M64 12L74 110" fill="none" stroke="#4a2e0c" stroke-opacity="0.5" stroke-width="1.5" stroke-linecap="round" stroke-linejoin="round"/><path d="M64 12L55.51 28L72.49 28Z" fill="url(#g4)"/><path d="M64 12L55.51 28L72.49 28Z" fill="none" stroke="#5e3c06" stroke-width="2" stroke-linecap="round" stroke-linejoin="round"/><path d="M78 14C78 21.73 71.73 28 64 28C56.27 28 50 21.73 50 14C50 6.27 56.27 0 64 0C71.73 0 78 6.27 78 14" fill="url(#g5)"/></svg>