<svg xmlns="http://www.w3.org/2000/svg" viewBox="0 0 800 800" width="800" height="800"><rect width="800" height="800" fill="#23357a"/><g transform="translate(300 250) scale(6)" fill="#16225c"><path d="M4 39 C3 32 7 29 14 28 C20 27 24 26 25 23 L24 12 L22 3 L30 10 L39 12 L30 16 L29 23 C29 30 33 34 34 39 Z M2 41 H38 V46 H2 Z"/></g><path d="M20 40 L20 23 M20 40 L36.2 34.7 M20 40 L30 53.8 M20 40 L10 53.8 M20 40 L3.8 34.7 " stroke="#f2c84a" stroke-width="5" stroke-linecap="round"/><circle cx="20" cy="40" r="4" fill="#f2c84a"/><path d="M86 40 L86 23 M86 40 L102.2 34.7 M86 40 L96 53.8 M86 40 L76 53.8 M86 40 L69.8 34.7 " stroke="#f2c84a" stroke-width="5" stroke-linecap="round"/><circle cx="86" cy="40" r="4" fill="#f2c84a"/><path d="M152 40 L152 23 M152 40 L168.2 34.7 M152 40 L162 53.8 M152 40 L142 53.8 M152 40 L135.8 34.7 " stroke="#f2c84a" stroke-width="5" stroke-linecap="round"/><circle cx="152" cy="40" r="4" fill="#f2c84a"/><path d="M218 40 L218 23 M218 40 L234.2 34.7 M218 40 L228 53.8 M218 40 L208 53.8 M218 40 L201.8 34.7 " stroke="#f2c84a" stroke-width="5" stroke-linecap="round"/><circle cx="218" cy="40" r="4" fill="#f2c84a"/><path d="M284 40 L284 23 M284 40 L300.2 34.7 M284 40 L294 53.8 M284 40 L274 53.8 M284 40 L267.8 34.7 " stroke="#f2c84a" stroke-width="5" stroke-linecap="round"/><circle cx="284" cy="40" r="4" fill="#f2c84a"/><path d="M350 40 L350 23 M350 40 L366.2 34.7 M350 40 L360 53.8 M350 40 L340 53.8 M350 40 L333.8 34.7 " stroke="#f2c84a" stroke-width="5" stroke-linecap="round"/><circle cx="350" cy="40" r="4" fill="#f2c84a"/><path d="M416 40 L416 23 M416 40 L432.2 34.7 M416 40 L426 53.8 M416 40 L406 53.8 M416 40 L399.8 34.7 " stroke="#f2c84a" stroke-width="5" stroke-linecap="round"/><circle cx="416" cy="40" r="4" fill="#f2c84a"/><path d="M482 40 L482 23 M482 40 L498.2 34.7 M482 40 L492 53.8 M482 40 L472 53.8 M482 40 L465.8 34.7 " stroke="#f2c84a" stroke-width="5" stroke-linecap="round"/><circle cx="482" cy="40" r="4" fill="#f2c84a"/><path d="M548 40 L548 23 M548 40 L564.2 34.7 M548 40 L558 53.8 M548 40 L538 53.8 M548 40 L531.8 34.7 " stroke="#f2c84a" stroke-width="5" stroke-linecap="round"/><circle cx="548" cy="40" r="4" fill="#f2c84a"/><path d="M614 40 L614 23 M614 40 L630.2 34.7 M614 40 L624 53.8 M614 40 L604 53.8 M614 40 L597.8 34.7 " stroke="#f2c84a" stroke-width="5" stroke-linecap="round"/><circle cx="614" cy="40" r="4" fill="#f2c84a"/><path d="M680 40 L680 23 M680 40 L696.2 34.7 M680 40 L690 53.8 M680 40 L670 53.8 M680 40 L663.8 34.7 " stroke="#f2c84a" stroke-width="5" stroke-linecap="round"/><circle cx="680" cy="40" r="4" fill="#f2c84a"/><path d="M746 40 L746 23 M746 40 L762.2 34.7 M746 40 L756 53.8 M746 40 L736 53.8 M746 40 L729.8 34.7 " stroke="#f2c84a" stroke-width="5" stroke-linecap="round"/><circle cx="746" cy="40" r="4" fill="#f2c84a"/><path d="M812 40 L812 23 M812 40 L828.2 34.7 M812 40 L822 53.8 M812 40 L802 53.8 M812 40 L795.8 34.7 " stroke="#f2c84a" stroke-width="5" stroke-linecap="round"/><circle cx="812" cy="40" r="4" fill="#f2c84a"/><path d="M53 106 L53 89 M53 106 L69.2 100.7 M53 106 L63 119.8 M53 106 L43 119.8 M53 106 L36.8 100.7 " stroke="#f2c84a" stroke-width="5" stroke-linecap="round"/><circle cx="53" cy="106" r="4" fill="#f2c84a"/><path d="M119 106 L119 89 M119 106 L135.2 100.7 M119 106 L129 119.8 M119 106 L109 119.8 M119 106 L102.8 100.7 " stroke="#f2c84a" stroke-width="5" stroke-linecap="round"/><circle cx="119" cy="106" r="4" fill="#f2c84a"/><path d="M185 106 L185 89 M185 106 L201.2 100.7 M185 106 L195 119.8 M185 106 L175 119.8 M185 106 L168.8 100.7 " stroke="#f2c84a" stroke-width="5" stroke-linecap="round"/><circle cx="185" cy="106" r="4" fill="#f2c84a"/><path d="M251 106 L251 89 M251 106 L267.2 100.7 M251 106 L261 119.8 M251 106 L241 119.8 M251 106 L234.8 100.7 " stroke="#f2c84a" stroke-width="5" stroke-linecap="round"/><circle cx="251" cy="106" r="4" fill="#f2c84a"/><path d="M317 106 L317 89 M317 106 L333.2 100.7 M317 106 L327 119.8 M317 106 L307 119.8 M317 106 L300.8 100.7 " stroke="#f2c84a" stroke-width="5" stroke-linecap="round"/><circle cx="317" cy="106" r="4" fill="#f2c84a"/><path d="M383 106 L383 89 M383 106 L399.2 100.7 M383 106 L393 119.8 M383 106 L373 119.8 M383 106 L366.8 100.7 " stroke="#f2c84a" stroke-width="5" stroke-linecap="round"/><circle cx="383" cy="106" r="4" fill="#f2c84a"/><path d="M449 106 L449 89 M449 106 L465.2 100.7 M449 106 L459 119.8 M449 106 L439 119.8 M449 106 L432.8 100.7 " stroke="#f2c84a" stroke-width="5" stroke-linecap="round"/><circle cx="449" cy="106" r="4" fill="#f2c84a"/><path d="M515 106 L515 89 M515 106 L531.2 100.7 M515 106 L525 119.8 M515 106 L505 119.8 M515 106 L498.8 100.7 " stroke="#f2c84a" stroke-width="5" stroke-linecap="round"/><circle cx="515" cy="106" r="4" fill="#f2c84a"/><path d="M581 106 L581 89 M581 106 L597.2 100.7 M581 106 L591 119.8 M581 106 L571 119.8 M581 106 L564.8 100.7 " stroke="#f2c84a" stroke-width="5" stroke-linecap="round"/><circle cx="581" cy="106" r="4" fill="#f2c84a"/><path d="M647 106 L647 89 M647 106 L663.2 100.7 M647 106 L657 119.8 M647 106 L637 119.8 M647 106 L630.8 100.7 " stroke="#f2c84a" stroke-width="5" stroke-linecap="round"/><circle cx="647" cy="106" r="4" fill="#f2c84a"/><path d="M713 106 L713 89 M713 106 L729.2 100.7 M713 106 L723 119.8 M713 106 L703 119.8 M713 106 L696.8 100.7 " stroke="#f2c84a" stroke-width="5" stroke-linecap="round"/><circle cx="713" cy="106" r="4" fill="#f2c84a"/><path d="M779 106 L779 89 M779 106 L795.2 100.7 M779 106 L789 119.8 M779 106 L769 119.8 M779 106 L762.8 100.7 " stroke="#f2c84a" stroke-width="5" stroke-linecap="round"/><circle cx="779" cy="106" r="4" fill="#f2c84a"/><path d="M20 172 L20 155 M20 172 L36.2 166.7 M20 172 L30 185.8 M20 172 L10 185.8 M20 172 L3.8 166.7 " stroke="#f2c84a" stroke-width="5" stroke-linecap="round"/><circle cx="20" cy="172" r="4" fill="#f2c84a"/><path d="M86 172 L86 155 M86 172 L102.2 166.7 M86 172 L96 185.8 M86 172 L76 185.8 M86 172 L69.8 166.7 " stroke="#f2c84a" stroke-width="5" stroke-linecap="round"/><circle cx="86" cy="172" r="4" fill="#f2c84a"/><path d="M152 172 L152 155 M152 172 L168.2 166.7 M152 172 L162 185.8 M152 172 L142 185.8 M152 172 L135.8 166.7 " stroke="#f2c84a" stroke-width="5" stroke-linecap="round"/><circle cx="152" cy="172" r="4" fill="#f2c84a"/><path d="M218 172 L218 155 M218 172 L234.2 166.7 M218 172 L228 185.8 M218 172 L208 185.8 M218 172 L201.8 166.7 " stroke="#f2c84a" stroke-width="5" stroke-linecap="round"/><circle cx="218" cy="172" r="4" fill="#f2c84a"/><path d="M284 172 L284 155 M284 172 L300.2 166.7 M284 172 L294 185.8 M284 172 L274 185.8 M284 172 L267.8 166.7 " stroke="#f2c84a" stroke-width="5" stroke-linecap="round"/><circle cx="284" cy="172" r="4" fill="#f2c84a"/><path d="M350 172 L350 155 M350 172 L366.2 166.7 M350 172 L360 185.8 M350 172 L340 185.8 M350 172 L333.8 166.7 " stroke="#f2c84a" stroke-width="5" stroke-linecap="round"/><circle cx="350" cy="172" r="4" fill="#f2c84a"/><path d="M416 172 L416 155 M416 172 L432.2 166.7 M416 172 L426 185.8 M416 172 L406 185.8 M416 172 L399.8 166.7 " stroke="#f2c84a" stroke-width="5" stroke-linecap="round"/><circle cx="416" cy="172" r="4" fill="#f2c84a"/><path d="M482 172 L482 155 M482 172 L498.2 166.7 M482 172 L492 185.8 M482 172 L472 185.8 M482 172 L465.8 166.7 " stroke="#f2c84a" stroke-width="5" stroke-linecap="round"/><circle cx="482" cy="172" r="4" fill="#f2c84a"/><path d="M548 172 L548 155 M548 172 L564.2 166.7 M548 172 L558 185.8 M548 172 L538 185.8 M548 172 L531.8 166.7 " stroke="#f2c84a" stroke-width="5" stroke-linecap="round"/><circle cx="548" cy="172" r="4" fill="#f2c84a"/><path d="M614 172 L614 155 M614 172 L630.2 166.7 M614 172 L624 185.8 M614 172 L604 185.8 M614 172 L597.8 166.7 " stroke="#f2c84a" stroke-width="5" stroke-linecap="round"/><circle cx="614" cy="172" r="4" fill="#f2c84a"/><path d="M680 172 L680 155 M680 172 L696.2 166.7 M680 172 L690 185.8 M680 172 L670 185.8 M680 172 L663.8 166.7 " stroke="#f2c84a" stroke-width="5" stroke-linecap="round"/><circle cx="680" cy="172" r="4" fill="#f2c84a"/><path d="M746 172 L746 155 M746 172 L762.2 166.7 M746 172 L756 185.8 M746 172 L736 185.8 M746 172 L729.8 166.7 " stroke="#f2c84a" stroke-width="5" stroke-linecap="round"/><circle cx="746" cy="172" r="4" fill="#f2c84a"/><path d="M812 172 L812 155 M812 172 L828.2 166.7 M812 172 L822 185.8 M812 172 L802 185.8 M812 172 L795.8 166.7 " stroke="#f2c84a" stroke-width="5" stroke-linecap="round"/><circle cx="812" cy="172" r="4" fill="#f2c84a"/><path d="M53 238 L53 221 M53 238 L69.2 232.7 M53 238 L63 251.8 M53 238 L43 251.8 M53 238 L36.8 232.7 " stroke="#f2c84a" stroke-width="5" stroke-linecap="round"/><circle cx="53" cy="238" r="4" fill="#f2c84a"/><path d="M119 238 L119 221 M119 238 L135.2 232.7 M119 238 L129 251.8 M119 238 L109 251.8 M119 238 L102.8 232.7 " stroke="#f2c84a" stroke-width="5" stroke-linecap="round"/><circle cx="119" cy="238" r="4" fill="#f2c84a"/><path d="M185 238 L185 221 M185 238 L201.2 232.7 M185 238 L195 251.8 M185 238 L175 251.8 M185 238 L168.8 232.7 " stroke="#f2c84a" stroke-width="5" stroke-linecap="round"/><circle cx="185" cy="238" r="4" fill="#f2c84a"/><path d="M251 238 L251 221 M251 238 L267.2 232.7 M251 238 L261 251.8 M251 238 L241 251.8 M251 238 L234.8 232.7 " stroke="#f2c84a" stroke-width="5" stroke-linecap="round"/><circle cx="251" cy="238" r="4" fill="#f2c84a"/><path d="M317 238 L317 221 M317 238 L333.2 232.7 M317 238 L327 251.8 M317 238 L307 251.8 M317 238 L300.8 232.7 " stroke="#f2c84a" stroke-width="5" stroke-linecap="round"/><circle cx="317" cy="238" r="4" fill="#f2c84a"/><path d="M383 238 L383 221 M383 238 L399.2 232.7 M383 238 L393 251.8 M383 238 L373 251.8 M383 238 L366.8 232.7 " stroke="#f2c84a" stroke-width="5" stroke-linecap="round"/><circle cx="383" cy="238" r="4" fill="#f2c84a"/><path d="M449 238 L449 221 M449 238 L465.2 232.7 M449 238 L459 251.8 M449 238 L439 251.8 M449 238 L432.8 232.7 " stroke="#f2c84a" stroke-width="5" stroke-linecap="round"/><circle cx="449" cy="238" r="4" fill="#f2c84a"/><path d="M515 238 L515 221 M515 238 L531.2 232.7 M515 238 L525 251.8 M515 238 L505 251.8 M515 238 L498.8 232.7 " stroke="#f2c84a" stroke-width="5" stroke-linecap="round"/><circle cx="515" cy="238" r="4" fill="#f2c84a"/><path d="M581 238 L581 221 M581 238 L597.2 232.7 M581 238 L591 251.8 M581 238 L571 251.8 M581 238 L564.8 232.7 " stroke="#f2c84a" stroke-width="5" stroke-linecap="round"/><circle cx="581" cy="238" r="4" fill="#f2c84a"/><path d="M647 238 L647 221 M647 238 L663.2 232.7 M647 238 L657 251.8 M647 238 L637 251.8 M647 238 L630.8 232.7 " stroke="#f2c84a" stroke-width="5" stroke-linecap="round"/><circle cx="647" cy="238" r="4" fill="#f2c84a"/><path d="M713 238 L713 221 M713 238 L729.2 232.7 M713 238 L723 251.8 M713 238 L703 251.8 M713 238 L696.8 232.7 " stroke="#f2c84a" stroke-width="5" stroke-linecap="round"/><circle cx="713" cy="238" r="4" fill="#f2c84a"/><path d="M779 238 L779 221 M779 238 L795.2 232.7 M779 238 L789 251.8 M779 238 L769 251.8 M779 238 L762.8 232.7 " stroke="#f2c84a" stroke-width="5" stroke-linecap="round"/><circle cx="779" cy="238" r="4" fill="#f2c84a"/><path d="M20 304 L20 287 M20 304 L36.2 298.7 M20 304 L30 317.8 M20 304 L10 317.8 M20 304 L3.8 298.7 " stroke="#f2c84a" stroke-width="5" stroke-linecap="round"/><circle cx="20" cy="304" r="4" fill="#f2c84a"/><path d="M86 304 L86 287 M86 304 L102.2 298.7 M86 304 L96 317.8 M86 304 L76 317.8 M86 304 L69.8 298.7 " stroke="#f2c84a" stroke-width="5" stroke-linecap="round"/><circle cx="86" cy="304" r="4" fill="#f2c84a"/><path d="M152 304 L152 287 M152 304 L168.2 298.7 M152 304 L162 317.8 M152 304 L142 317.8 M152 304 L135.8 298.7 " stroke="#f2c84a" stroke-width="5" stroke-linecap="round"/><circle cx="152" cy="304" r="4" fill="#f2c84a"/><path d="M218 304 L218 287 M218 304 L234.2 298.7 M218 304 L228 317.8 M218 304 L208 317.8 M218 304 L201.8 298.7 " stroke="#f2c84a" stroke-width="5" stroke-linecap="round"/><circle cx="218" cy="304" r="4" fill="#f2c84a"/><path d="M284 304 L284 287 M284 304 L300.2 298.7 M284 304 L294 317.8 M284 304 L274 317.8 M284 304 L267.8 298.7 " stroke="#f2c84a" stroke-width="5" stroke-linecap="round"/><circle cx="284" cy="304" r="4" fill="#f2c84a"/><path d="M350 304 L350 287 M350 304 L366.2 298.7 M350 304 L360 317.8 M350 304 L340 317.8 M350 304 L333.8 298.7 " stroke="#f2c84a" stroke-width="5" stroke-linecap="round"/><circle cx="350" cy="304" r="4" fill="#f2c84a"/><path d="M416 304 L416 287 M416 304 L432.2 298.7 M416 304 L426 317.8 M416 304 L406 317.8 M416 304 L399.8 298.7 " stroke="#f2c84a" stroke-width="5" stroke-linecap="round"/><circle cx="416" cy="304" r="4" fill="#f2c84a"/><path d="M482 304 L482 287 M482 304 L498.2 298.7 M482 304 L492 317.8 M482 304 L472 317.8 M482 304 L465.8 298.7 " stroke="#f2c84a" stroke-width="5" stroke-linecap="round"/><circle cx="482" cy="304" r="4" fill="#f2c84a"/><path d="M548 304 L548 287 M548 304 L564.2 298.7 M548 304 L558 317.8 M548 304 L538 317.8 M548 304 L531.8 298.7 " stroke="#f2c84a" stroke-width="5" stroke-linecap="round"/><circle cx="548" cy="304" r="4" fill="#f2c84a"/><path d="M614 304 L614 287 M614 304 L630.2 298.7 M614 304 L624 317.8 M614 304 L604 317.8 M614 304 L597.8 298.7 " stroke="#f2c84a" stroke-width="5" stroke-linecap="round"/><circle cx="614" cy="304" r="4" fill="#f2c84a"/><path d="M680 304 L680 287 M680 304 L696.2 298.7 M680 304 L690 317.8 M680 304 L670 317.8 M680 304 L663.8 298.7 " stroke="#f2c84a" stroke-width="5" stroke-linecap="round"/><circle cx="680" cy="304" r="4" fill="#f2c84a"/><path d="M746 304 L746 287 M746 304 L762.2 298.7 M746 304 L756 317.8 M746 304 L736 317.8 M746 304 L729.8 298.7 " stroke="#f2c84a" stroke-width="5" stroke-linecap="round"/><circle cx="746" cy="304" r="4" fill="#f2c84a"/><path d="M812 304 L812 287 M812 304 L828.2 298.7 M812 304 L822 317.8 M812 304 L802 317.8 M812 304 L795.8 298.7 " stroke="#f2c84a" stroke-width="5" stroke-linecap="round"/><circle cx="812" cy="304" r="4" fill="#f2c84a"/><path d="M53 370 L53 353 M53 370 L69.2 364.7 M53 370 L63 383.8 M53 370 L43 383.8 M53 370 L36.8 364.7 " stroke="#f2c84a" stroke-width="5" stroke-linecap="round"/><circle cx="53" cy="370" r="4" fill="#f2c84a"/><path d="M119 370 L119 353 M119 370 L135.2 364.7 M119 370 L129 383.8 M119 370 L109 383.8 M119 370 L102.8 364.7 " stroke="#f2c84a" stroke-width="5" stroke-linecap="round"/><circle cx="119" cy="370" r="4" fill="#f2c84a"/><path d="M185 370 L185 353 M185 370 L201.2 364.7 M185 370 L195 383.8 M185 370 L175 383.8 M185 370 L168.8 364.7 " stroke="#f2c84a" stroke-width="5" stroke-linecap="round"/><circle cx="185" cy="370" r="4" fill="#f2c84a"/><path d="M251 370 L251 353 M251 370 L267.2 364.7 M251 370 L261 383.8 M251 370 L241 383.8 M251 370 L234.8 364.7 " stroke="#f2c84a" stroke-width="5" stroke-linecap="round"/><circle cx="251" cy="370" r="4" fill="#f2c84a"/><path d="M317 370 L317 353 M317 370 L333.2 364.7 M317 370 L327 383.8 M317 370 L307 383.8 M317 370 L300.8 364.7 " stroke="#f2c84a" stroke-width="5" stroke-linecap="round"/><circle cx="317" cy="370" r="4" fill="#f2c84a"/><path d="M383 370 L383 353 M383 370 L399.2 364.7 M383 370 L393 383.8 M383 370 L373 383.8 M383 370 L366.8 364.7 " stroke="#f2c84a" stroke-width="5" stroke-linecap="round"/><circle cx="383" cy="370" r="4" fill="#f2c84a"/><path d="M449 370 L449 353 M449 370 L465.2 364.7 M449 370 L459 383.8 M449 370 L439 383.8 M449 370 L432.8 364.7 " stroke="#f2c84a" stroke-width="5" stroke-linecap="round"/><circle cx="449" cy="370" r="4" fill="#f2c84a"/><path d="M515 370 L515 353 M515 370 L531.2 364.7 M515 370 L525 383.8 M515 370 L505 383.8 M515 370 L498.8 364.7 " stroke="#f2c84a" stroke-width="5" stroke-linecap="round"/><circle cx="515" cy="370" r="4" fill="#f2c84a"/><path d="M581 370 L581 353 M581 370 L597.2 364.7 M581 370 L591 383.8 M581 370 L571 383.8 M581 370 L564.8 364.7 " stroke="#f2c84a" stroke-width="5" stroke-linecap="round"/><circle cx="581" cy="370" r="4" fill="#f2c84a"/><path d="M647 370 L647 353 M647 370 L663.2 364.7 M647 370 L657 383.8 M647 370 L637 383.8 M647 370 L630.8 364.7 " stroke="#f2c84a" stroke-width="5" stroke-linecap="round"/><circle cx="647" cy="370" r="4" fill="#f2c84a"/><path d="M713 370 L713 353 M713 370 L729.2 364.7 M713 370 L723 383.8 M713 370 L703 383.8 M713 370 L696.8 364.7 " stroke="#f2c84a" stroke-width="5" stroke-linecap="round"/><circle cx="713" cy="370" r="4" fill="#f2c84a"/><path d="M779 370 L779 353 M779 370 L795.2 364.7 M779 370 L789 383.8 M779 370 L769 383.8 M779 370 L762.8 364.7 " stroke="#f2c84a" stroke-width="5" stroke-linecap="round"/><circle cx="779" cy="370" r="4" fill="#f2c84a"/><path d="M20 436 L20 419 M20 436 L36.2 430.7 M20 436 L30 449.8 M20 436 L10 449.8 M20 436 L3.8 430.7 " stroke="#f2c84a" stroke-width="5" stroke-linecap="round"/><circle cx="20" cy="436" r="4" fill="#f2c84a"/><path d="M86 436 L86 419 M86 436 L102.2 430.7 M86 436 L96 449.8 M86 436 L76 449.8 M86 436 L69.8 430.7 " stroke="#f2c84a" stroke-width="5" stroke-linecap="round"/><circle cx="86" cy="436" r="4" fill="#f2c84a"/><path d="M152 436 L152 419 M152 436 L168.2 430.7 M152 436 L162 449.8 M152 436 L142 449.8 M152 436 L135.8 430.7 " stroke="#f2c84a" stroke-width="5" stroke-linecap="round"/><circle cx="152" cy="436" r="4" fill="#f2c84a"/><path d="M218 436 L218 419 M218 436 L234.2 430.7 M218 436 L228 449.8 M218 436 L208 449.8 M218 436 L201.8 430.7 " stroke="#f2c84a" stroke-width="5" stroke-linecap="round"/><circle cx="218" cy="436" r="4" fill="#f2c84a"/><path d="M284 436 L284 419 M284 436 L300.2 430.7 M284 436 L294 449.8 M284 436 L274 449.8 M284 436 L267.8 430.7 " stroke="#f2c84a" stroke-width="5" stroke-linecap="round"/><circle cx="284" cy="436" r="4" fill="#f2c84a"/><path d="M350 436 L350 419 M350 436 L366.2 430.7 M350 436 L360 449.8 M350 436 L340 449.8 M350 436 L333.8 430.7 " stroke="#f2c84a" stroke-width="5" stroke-linecap="round"/><circle cx="350" cy="436" r="4" fill="#f2c84a"/><path d="M416 436 L416 419 M416 436 L432.2 430.7 M416 436 L426 449.8 M416 436 L406 449.8 M416 436 L399.8 430.7 " stroke="#f2c84a" stroke-width="5" stroke-linecap="round"/><circle cx="416" cy="436" r="4" fill="#f2c84a"/><path d="M482 436 L482 419 M482 436 L498.2 430.7 M482 436 L492 449.8 M482 436 L472 449.8 M482 436 L465.8 430.7 " stroke="#f2c84a" stroke-width="5" stroke-linecap="round"/><circle cx="482" cy="436" r="4" fill="#f2c84a"/><path d="M548 436 L548 419 M548 436 L564.2 430.7 M548 436 L558 449.8 M548 436 L538 449.8 M548 436 L531.8 430.7 " stroke="#f2c84a" stroke-width="5" stroke-linecap="round"/><circle cx="548" cy="436" r="4" fill="#f2c84a"/><path d="M614 436 L614 419 M614 436 L630.2 430.7 M614 436 L624 449.8 M614 436 L604 449.8 M614 436 L597.8 430.7 " stroke="#f2c84a" stroke-width="5" stroke-linecap="round"/><circle cx="614" cy="436" r="4" fill="#f2c84a"/><path d="M680 436 L680 419 M680 436 L696.2 430.7 M680 436 L690 449.8 M680 436 L670 449.8 M680 436 L663.8 430.7 " stroke="#f2c84a" stroke-width="5" stroke-linecap="round"/><circle cx="680" cy="436" r="4" fill="#f2c84a"/><path d="M746 436 L746 419 M746 436 L762.2 430.7 M746 436 L756 449.8 M746 436 L736 449.8 M746 436 L729.8 430.7 " stroke="#f2c84a" stroke-width="5" stroke-linecap="round"/><circle cx="746" cy="436" r="4" fill="#f2c84a"/><path d="M812 436 L812 419 M812 436 L828.2 430.7 M812 436 L822 449.8 M812 436 L802 449.8 M812 436 L795.8 430.7 " stroke="#f2c84a" stroke-width="5" stroke-linecap="round"/><circle cx="812" cy="436" r="4" fill="#f2c84a"/><path d="M53 502 L53 485 M53 502 L69.2 496.7 M53 502 L63 515.8 M53 502 L43 515.8 M53 502 L36.8 496.7 " stroke="#f2c84a" stroke-width="5" stroke-linecap="round"/><circle cx="53" cy="502" r="4" fill="#f2c84a"/><path d="M119 502 L119 485 M119 502 L135.2 496.7 M119 502 L129 515.8 M119 502 L109 515.8 M119 502 L102.8 496.7 " stroke="#f2c84a" stroke-width="5" stroke-linecap="round"/><circle cx="119" cy="502" r="4" fill="#f2c84a"/><path d="M185 502 L185 485 M185 502 L201.2 496.7 M185 502 L195 515.8 M185 502 L175 515.8 M185 502 L168.8 496.7 " stroke="#f2c84a" stroke-width="5" stroke-linecap="round"/><circle cx="185" cy="502" r="4" fill="#f2c84a"/><path d="M251 502 L251 485 M251 502 L267.2 496.7 M251 502 L261 515.8 M251 502 L241 515.8 M251 502 L234.8 496.7 " stroke="#f2c84a" stroke-width="5" stroke-linecap="round"/><circle cx="251" cy="502" r="4" fill="#f2c84a"/><path d="M317 502 L317 485 M317 502 L333.2 496.7 M317 502 L327 515.8 M317 502 L307 515.8 M317 502 L300.8 496.7 " stroke="#f2c84a" stroke-width="5" stroke-linecap="round"/><circle cx="317" cy="502" r="4" fill="#f2c84a"/><path d="M383 502 L383 485 M383 502 L399.2 496.7 M383 502 L393 515.8 M383 502 L373 515.8 M383 502 L366.8 496.7 " stroke="#f2c84a" stroke-width="5" stroke-linecap="round"/><circle cx="383" cy="502" r="4" fill="#f2c84a"/><path d="M449 502 L449 485 M449 502 L465.2 496.7 M449 502 L459 515.8 M449 502 L439 515.8 M449 502 L432.8 496.7 " stroke="#f2c84a" stroke-width="5" stroke-linecap="round"/><circle cx="449" cy="502" r="4" fill="#f2c84a"/><path d="M515 502 L515 485 M515 502 L531.2 496.7 M515 502 L525 515.8 M515 502 L505 515.8 M515 502 L498.8 496.7 " stroke="#f2c84a" stroke-width="5" stroke-linecap="round"/><circle cx="515" cy="502" r="4" fill="#f2c84a"/><path d="M581 502 L581 485 M581 502 L597.2 496.7 M581 502 L591 515.8 M581 502 L571 515.8 M581 502 L564.8 496.7 " stroke="#f2c84a" stroke-width="5" stroke-linecap="round"/><circle cx="581" cy="502" r="4" fill="#f2c84a"/><path d="M647 502 L647 485 M647 502 L663.2 496.7 M647 502 L657 515.8 M647 502 L637 515.8 M647 502 L630.8 496.7 " stroke="#f2c84a" stroke-width="5" stroke-linecap="round"/><circle cx="647" cy="502" r="4" fill="#f2c84a"/><path d="M713 502 L713 485 M713 502 L729.2 496.7 M713 502 L723 515.8 M713 502 L703 515.8 M713 502 L696.8 496.7 " stroke="#f2c84a" stroke-width="5" stroke-linecap="round"/><circle cx="713" cy="502" r="4" fill="#f2c84a"/><path d="M779 502 L779 485 M779 502 L795.2 496.7 M779 502 L789 515.8 M779 502 L769 515.8 M779 502 L762.8 496.7 " stroke="#f2c84a" stroke-width="5" stroke-linecap="round"/><circle cx="779" cy="502" r="4" fill="#f2c84a"/><path d="M20 568 L20 551 M20 568 L36.2 562.7 M20 568 L30 581.8 M20 568 L10 581.8 M20 568 L3.8 562.7 " stroke="#f2c84a" stroke-width="5" stroke-linecap="round"/><circle cx="20" cy="568" r="4" fill="#f2c84a"/><path d="M86 568 L86 551 M86 568 L102.2 562.7 M86 568 L96 581.8 M86 568 L76 581.8 M86 568 L69.8 562.7 " stroke="#f2c84a" stroke-width="5" stroke-linecap="round"/><circle cx="86" cy="568" r="4" fill="#f2c84a"/><path d="M152 568 L152 551 M152 568 L168.2 562.7 M152 568 L162 581.8 M152 568 L142 581.8 M152 568 L135.8 562.7 " stroke="#f2c84a" stroke-width="5" stroke-linecap="round"/><circle cx="152" cy="568" r="4" fill="#f2c84a"/><path d="M218 568 L218 551 M218 568 L234.2 562.7 M218 568 L228 581.8 M218 568 L208 581.8 M218 568 L201.8 562.7 " stroke="#f2c84a" stroke-width="5" stroke-linecap="round"/><circle cx="218" cy="568" r="4" fill="#f2c84a"/><path d="M284 568 L284 551 M284 568 L300.2 562.7 M284 568 L294 581.8 M284 568 L274 581.8 M284 568 L267.8 562.7 " stroke="#f2c84a" stroke-width="5" stroke-linecap="round"/><circle cx="284" cy="568" r="4" fill="#f2c84a"/><path d="M350 568 L350 551 M350 568 L366.2 562.7 M350 568 L360 581.8 M350 568 L340 581.8 M350 568 L333.8 562.7 " stroke="#f2c84a" stroke-width="5" stroke-linecap="round"/><circle cx="350" cy="568" r="4" fill="#f2c84a"/><path d="M416 568 L416 551 M416 568 L432.2 562.7 M416 568 L426 581.8 M416 568 L406 581.8 M416 568 L399.8 562.7 " stroke="#f2c84a" stroke-width="5" stroke-linecap="round"/><circle cx="416" cy="568" r="4" fill="#f2c84a"/><path d="M482 568 L482 551 M482 568 L498.2 562.7 M482 568 L492 581.8 M482 568 L472 581.8 M482 568 L465.8 562.7 " stroke="#f2c84a" stroke-width="5" stroke-linecap="round"/><circle cx="482" cy="568" r="4" fill="#f2c84a"/><path d="M548 568 L548 551 M548 568 L564.2 562.7 M548 568 L558 581.8 M548 568 L538 581.8 M548 568 L531.8 562.7 " stroke="#f2c84a" stroke-width="5" stroke-linecap="round"/><circle cx="548" cy="568" r="4" fill="#f2c84a"/><path d="M614 568 L614 551 M614 568 L630.2 562.7 M614 568 L624 581.8 M614 568 L604 581.8 M614 568 L597.8 562.7 " stroke="#f2c84a" stroke-width="5" stroke-linecap="round"/><circle cx="614" cy="568" r="4" fill="#f2c84a"/><path d="M680 568 L680 551 M680 568 L696.2 562.7 M680 568 L690 581.8 M680 568 L670 581.8 M680 568 L663.8 562.7 " stroke="#f2c84a" stroke-width="5" stroke-linecap="round"/><circle cx="680" cy="568" r="4" fill="#f2c84a"/><path d="M746 568 L746 551 M746 568 L762.2 562.7 M746 568 L756 581.8 M746 568 L736 581.8 M746 568 L729.8 562.7 " stroke="#f2c84a" stroke-width="5" stroke-linecap="round"/><circle cx="746" cy="568" r="4" fill="#f2c84a"/><path d="M812 568 L812 551 M812 568 L828.2 562.7 M812 568 L822 581.8 M812 568 L802 581.8 M812 568 L795.8 562.7 " stroke="#f2c84a" stroke-width="5" stroke-linecap="round"/><circle cx="812" cy="568" r="4" fill="#f2c84a"/><path d="M53 634 L53 617 M53 634 L69.2 628.7 M53 634 L63 647.8 M53 634 L43 647.8 M53 634 L36.8 628.7 " stroke="#f2c84a" stroke-width="5" stroke-linecap="round"/><circle cx="53" cy="634" r="4" fill="#f2c84a"/><path d="M119 634 L119 617 M119 634 L135.2 628.7 M119 634 L129 647.8 M119 634 L109 647.8 M119 634 L102.8 628.7 " stroke="#f2c84a" stroke-width="5" stroke-linecap="round"/><circle cx="119" cy="634" r="4" fill="#f2c84a"/><path d="M185 634 L185 617 M185 634 L201.2 628.7 M185 634 L195 647.8 M185 634 L175 647.8 M185 634 L168.8 628.7 " stroke="#f2c84a" stroke-width="5" stroke-linecap="round"/><circle cx="185" cy="634" r="4" fill="#f2c84a"/><path d="M251 634 L251 617 M251 634 L267.2 628.7 M251 634 L261 647.8 M251 634 L241 647.8 M251 634 L234.8 628.7 " stroke="#f2c84a" stroke-width="5" stroke-linecap="round"/><circle cx="251" cy="634" r="4" fill="#f2c84a"/><path d="M317 634 L317 617 M317 634 L333.2 628.7 M317 634 L327 647.8 M317 634 L307 647.8 M317 634 L300.8 628.7 " stroke="#f2c84a" stroke-width="5" stroke-linecap="round"/><circle cx="317" cy="634" r="4" fill="#f2c84a"/><path d="M383 634 L383 617 M383 634 L399.2 628.7 M383 634 L393 647.8 M383 634 L373 647.8 M383 634 L366.8 628.7 " stroke="#f2c84a" stroke-width="5" stroke-linecap="round"/><circle cx="383" cy="634" r="4" fill="#f2c84a"/><path d="M449 634 L449 617 M449 634 L465.2 628.7 M449 634 L459 647.8 M449 634 L439 647.8 M449 634 L432.8 628.7 " stroke="#f2c84a" stroke-width="5" stroke-linecap="round"/><circle cx="449" cy="634" r="4" fill="#f2c84a"/><path d="M515 634 L515 617 M515 634 L531.2 628.7 M515 634 L525 647.8 M515 634 L505 647.8 M515 634 L498.8 628.7 " stroke="#f2c84a" stroke-width="5" stroke-linecap="round"/><circle cx="515" cy="634" r="4" fill="#f2c84a"/><path d="M581 634 L581 617 M581 634 L597.2 628.7 M581 634 L591 647.8 M581 634 L571 647.8 M581 634 L564.8 628.7 " stroke="#f2c84a" stroke-width="5" stroke-linecap="round"/><circle cx="581" cy="634" r="4" fill="#f2c84a"/><path d="M647 634 L647 617 M647 634 L663.2 628.7 M647 634 L657 647.8 M647 634 L637 647.8 M647 634 L630.8 628.7 " stroke="#f2c84a" stroke-width="5" stroke-linecap="round"/><circle cx="647" cy="634" r="4" fill="#f2c84a"/><path d="M713 634 L713 617 M713 634 L729.2 628.7 M713 634 L723 647.8 M713 634 L703 647.8 M713 634 L696.8 628.7 " stroke="#f2c84a" stroke-width="5" stroke-linecap="round"/><circle cx="713" cy="634" r="4" fill="#f2c84a"/><path d="M779 634 L779 617 M779 634 L795.2 628.7 M779 634 L789 647.8 M779 634 L769 647.8 M779 634 L762.8 628.7 " stroke="#f2c84a" stroke-width="5" stroke-linecap="round"/><circle cx="779" cy="634" r="4" fill="#f2c84a"/><path d="M20 700 L20 683 M20 700 L36.2 694.7 M20 700 L30 713.8 M20 700 L10 713.8 M20 700 L3.8 694.7 " stroke="#f2c84a" stroke-width="5" stroke-linecap="round"/><circle cx="20" cy="700" r="4" fill="#f2c84a"/><path d="M86 700 L86 683 M86 700 L102.2 694.7 M86 700 L96 713.8 M86 700 L76 713.8 M86 700 L69.8 694.7 " stroke="#f2c84a" stroke-width="5" stroke-linecap="round"/><circle cx="86" cy="700" r="4" fill="#f2c84a"/><path d="M152 700 L152 683 M152 700 L168.2 694.7 M152 700 L162 713.8 M152 700 L142 713.8 M152 700 L135.8 694.7 " stroke="#f2c84a" stroke-width="5" stroke-linecap="round"/><circle cx="152" cy="700" r="4" fill="#f2c84a"/><path d="M218 700 L218 683 M218 700 L234.2 694.7 M218 700 L228 713.8 M218 700 L208 713.8 M218 700 L201.8 694.7 " stroke="#f2c84a" stroke-width="5" stroke-linecap="round"/><circle cx="218" cy="700" r="4" fill="#f2c84a"/><path d="M284 700 L284 683 M284 700 L300.2 694.7 M284 700 L294 713.8 M284 700 L274 713.8 M284 700 L267.8 694.7 " stroke="#f2c84a" stroke-width="5" stroke-linecap="round"/><circle cx="284" cy="700" r="4" fill="#f2c84a"/><path d="M350 700 L350 683 M350 700 L366.2 694.7 M350 700 L360 713.8 M350 700 L340 713.8 M350 700 L333.8 694.7 " stroke="#f2c84a" stroke-width="5" stroke-linecap="round"/><circle cx="350" cy="700" r="4" fill="#f2c84a"/><path d="M416 700 L416 683 M416 700 L432.2 694.7 M416 700 L426 713.8 M416 700 L406 713.8 M416 700 L399.8 694.7 " stroke="#f2c84a" stroke-width="5" stroke-linecap="round"/><circle cx="416" cy="700" r="4" fill="#f2c84a"/><path d="M482 700 L482 683 M482 700 L498.2 694.7 M482 700 L492 713.8 M482 700 L472 713.8 M482 700 L465.8 694.7 " stroke="#f2c84a" stroke-width="5" stroke-linecap="round"/><circle cx="482" cy="700" r="4" fill="#f2c84a"/><path d="M548 700 L548 683 M548 700 L564.2 694.7 M548 700 L558 713.8 M548 700 L538 713.8 M548 700 L531.8 694.7 " stroke="#f2c84a" stroke-width="5" stroke-linecap="round"/><circle cx="548" cy="700" r="4" fill="#f2c84a"/><path d="M614 700 L614 683 M614 700 L630.2 694.7 M614 700 L624 713.8 M614 700 L604 713.8 M614 700 L597.8 694.7 " stroke="#f2c84a" stroke-width="5" stroke-linecap="round"/><circle cx="614" cy="700" r="4" fill="#f2c84a"/><path d="M680 700 L680 683 M680 700 L696.2 694.7 M680 700 L690 713.8 M680 700 L670 713.8 M680 700 L663.8 694.7 " stroke="#f2c84a" stroke-width="5" stroke-linecap="round"/><circle cx="680" cy="700" r="4" fill="#f2c84a"/><path d="M746 700 L746 683 M746 700 L762.2 694.7 M746 700 L756 713.8 M746 700 L736 713.8 M746 700 L729.8 694.7 " stroke="#f2c84a" stroke-width="5" stroke-linecap="round"/><circle cx="746" cy="700" r="4" fill="#f2c84a"/><path d="M812 700 L812 683 M812 700 L828.2 694.7 M812 700 L822 713.8 M812 700 L802 713.8 M812 700 L795.8 694.7 " stroke="#f2c84a" stroke-width="5" stroke-linecap="round"/><circle cx="812" cy="700" r="4" fill="#f2c84a"/><path d="M53 766 L53 749 M53 766 L69.2 760.7 M53 766 L63 779.8 M53 766 L43 779.8 M53 766 L36.8 760.7 " stroke="#f2c84a" stroke-width="5" stroke-linecap="round"/><circle cx="53" cy="766" r="4" fill="#f2c84a"/><path d="M119 766 L119 749 M119 766 L135.2 760.7 M119 766 L129 779.8 M119 766 L109 779.8 M119 766 L102.8 760.7 " stroke="#f2c84a" stroke-width="5" stroke-linecap="round"/><circle cx="119" cy="766" r="4" fill="#f2c84a"/><path d="M185 766 L185 749 M185 766 L201.2 760.7 M185 766 L195 779.8 M185 766 L175 779.8 M185 766 L168.8 760.7 " stroke="#f2c84a" stroke-width="5" stroke-linecap="round"/><circle cx="185" cy="766" r="4" fill="#f2c84a"/><path d="M251 766 L251 749 M251 766 L267.2 760.7 M251 766 L261 779.8 M251 766 L241 779.8 M251 766 L234.8 760.7 " stroke="#f2c84a" stroke-width="5" stroke-linecap="round"/><circle cx="251" cy="766" r="4" fill="#f2c84a"/><path d="M317 766 L317 749 M317 766 L333.2 760.7 M317 766 L327 779.8 M317 766 L307 779.8 M317 766 L300.8 760.7 " stroke="#f2c84a" stroke-width="5" stroke-linecap="round"/><circle cx="317" cy="766" r="4" fill="#f2c84a"/><path d="M383 766 L383 749 M383 766 L399.2 760.7 M383 766 L393 779.8 M383 766 L373 779.8 M383 766 L366.8 760.7 " stroke="#f2c84a" stroke-width="5" stroke-linecap="round"/><circle cx="383" cy="766" r="4" fill="#f2c84a"/><path d="M449 766 L449 749 M449 766 L465.2 760.7 M449 766 L459 779.8 M449 766 L439 779.8 M449 766 L432.8 760.7 " stroke="#f2c84a" stroke-width="5" stroke-linecap="round"/><circle cx="449" cy="766" r="4" fill="#f2c84a"/><path d="M515 766 L515 749 M515 766 L531.2 760.7 M515 766 L525 779.8 M515 766 L505 779.8 M515 766 L498.8 760.7 " stroke="#f2c84a" stroke-width="5" stroke-linecap="round"/><circle cx="515" cy="766" r="4" fill="#f2c84a"/><path d="M581 766 L581 749 M581 766 L597.2 760.7 M581 766 L591 779.8 M581 766 L571 779.8 M581 766 L564.8 760.7 " stroke="#f2c84a" stroke-width="5" stroke-linecap="round"/><circle cx="581" cy="766" r="4" fill="#f2c84a"/><path d="M647 766 L647 749 M647 766 L663.2 760.7 M647 766 L657 779.8 M647 766 L637 779.8 M647 766 L630.8 760.7 " stroke="#f2c84a" stroke-width="5" stroke-linecap="round"/><circle cx="647" cy="766" r="4" fill="#f2c84a"/><path d="M713 766 L713 749 M713 766 L729.2 760.7 M713 766 L723 779.8 M713 766 L703 779.8 M713 766 L696.8 760.7 " stroke="#f2c84a" stroke-width="5" stroke-linecap="round"/><circle cx="713" cy="766" r="4" fill="#f2c84a"/><path d="M779 766 L779 749 M779 766 L795.2 760.7 M779 766 L789 779.8 M779 766 L769 779.8 M779 766 L762.8 760.7 " stroke="#f2c84a" stroke-width="5" stroke-linecap="round"/><circle cx="779" cy="766" r="4" fill="#f2c84a"/></svg>