<!-- An engraving, hatched in black and coloured by hand, like the plates of the Description de l'Egypte. 128 by 128. Drawn by tools/amulet-sets/. -->
<svg xmlns="http://www.w3.org/2000/svg" viewBox="0 0 128 128" width="128" height="128">
<defs><pattern id="hatch" width="5" height="5" patternUnits="userSpaceOnUse" patternTransform="rotate(40)"><path d="M0 0 V5" stroke="#1a1008" stroke-width="1.3"/></pattern><pattern id="cross" width="5" height="5" patternUnits="userSpaceOnUse" patternTransform="rotate(-40)"><path d="M0 0 V5" stroke="#1a1008" stroke-width="1.3"/></pattern><filter id="sh" filterUnits="userSpaceOnUse" x="-50" y="-50" width="228" height="228"><feDropShadow dx="0" dy="4" stdDeviation="3" flood-color="#190c00" flood-opacity=".5"/></filter></defs>
<g filter="url(#sh)"><path d="M42 46 C20 42 12 22 24 10 M86 46 C108 42 116 22 104 10" fill="none" stroke="#1a1008" stroke-width="14" stroke-linecap="round" stroke-linejoin="round"/><path d="M64 8 A14 14 0 1 1 64 36 A14 14 0 1 1 64 8 Z" fill="#1a1008" stroke="#1a1008" stroke-width="6" stroke-linejoin="round"/><path d="M42 50 L20 56 L40 62 Z M86 50 L108 56 L88 62 Z" fill="#1a1008" stroke="#1a1008" stroke-width="6" stroke-linejoin="round"/><path d="M42 42 C42 36 86 36 86 42 C88 62 82 86 76 102 C72 114 56 114 52 102 C46 86 40 62 42 42 Z" fill="#1a1008" stroke="#1a1008" stroke-width="6" stroke-linejoin="round"/><path d="M53 58 A4 4 0 1 1 53 66 A4 4 0 1 1 53 58 Z M75 58 A4 4 0 1 1 75 66 A4 4 0 1 1 75 58 Z" fill="#1a1008" stroke="#1a1008" stroke-width="6" stroke-linejoin="round"/><path d="M54 98 C54 112 74 112 74 98 Z" fill="#1a1008" stroke="#1a1008" stroke-width="6" stroke-linejoin="round"/></g>
<path d="M42 46 C20 42 12 22 24 10 M86 46 C108 42 116 22 104 10" fill="none" stroke="#f5c83a" stroke-width="8" stroke-linecap="round"/><path d="M64 8 A14 14 0 1 1 64 36 A14 14 0 1 1 64 8 Z" fill="#d8482a"/><path d="M64 8 A14 14 0 1 1 64 36 A14 14 0 1 1 64 8 Z" fill="none" stroke="#1a1008" stroke-width="2.4" stroke-linejoin="round"/><path d="M42 50 L20 56 L40 62 Z M86 50 L108 56 L88 62 Z" fill="#f4efe4"/><path d="M42 50 L20 56 L40 62 Z M86 50 L108 56 L88 62 Z" fill="url(#hatch)" opacity=".4"/><path d="M42 50 L20 56 L40 62 Z M86 50 L108 56 L88 62 Z" fill="none" stroke="#1a1008" stroke-width="2.4" stroke-linejoin="round"/><path d="M42 42 C42 36 86 36 86 42 C88 62 82 86 76 102 C72 114 56 114 52 102 C46 86 40 62 42 42 Z" fill="#f4efe4"/><path d="M42 42 C42 36 86 36 86 42 C88 62 82 86 76 102 C72 114 56 114 52 102 C46 86 40 62 42 42 Z" fill="url(#hatch)" opacity=".4"/><path d="M42 42 C42 36 86 36 86 42 C88 62 82 86 76 102 C72 114 56 114 52 102 C46 86 40 62 42 42 Z" fill="none" stroke="#1a1008" stroke-width="2.4" stroke-linejoin="round"/><path d="M53 58 A4 4 0 1 1 53 66 A4 4 0 1 1 53 58 Z M75 58 A4 4 0 1 1 75 66 A4 4 0 1 1 75 58 Z" fill="#1a1008"/><path d="M53 58 A4 4 0 1 1 53 66 A4 4 0 1 1 53 58 Z M75 58 A4 4 0 1 1 75 66 A4 4 0 1 1 75 58 Z" fill="none" stroke="#1a1008" stroke-width="2.4" stroke-linejoin="round"/><path d="M54 98 C54 112 74 112 74 98 Z" fill="#b8ae98"/><path d="M54 98 C54 112 74 112 74 98 Z" fill="url(#hatch)" opacity=".7"/><path d="M54 98 C54 112 74 112 74 98 Z" fill="url(#cross)" opacity=".5"/><path d="M54 98 C54 112 74 112 74 98 Z" fill="none" stroke="#1a1008" stroke-width="2.4" stroke-linejoin="round"/>
</svg>
