<!-- An engraving, hatched in black and coloured by hand, like the plates of the Description de l'Egypte. 128 by 128. Drawn by tools/amulet-sets/. -->
<svg xmlns="http://www.w3.org/2000/svg" viewBox="0 0 128 128" width="128" height="128">
<defs><pattern id="hatch" width="5" height="5" patternUnits="userSpaceOnUse" patternTransform="rotate(40)"><path d="M0 0 V5" stroke="#1a1008" stroke-width="1.3"/></pattern><pattern id="cross" width="5" height="5" patternUnits="userSpaceOnUse" patternTransform="rotate(-40)"><path d="M0 0 V5" stroke="#1a1008" stroke-width="1.3"/></pattern><filter id="sh" filterUnits="userSpaceOnUse" x="-50" y="-50" width="228" height="228"><feDropShadow dx="0" dy="4" stdDeviation="3" flood-color="#190c00" flood-opacity=".5"/></filter></defs>
<g filter="url(#sh)"><path d="M26 122 V92 H102 V122 Z" fill="#1a1008" stroke="#1a1008" stroke-width="6" stroke-linejoin="round"/><path d="M38 92 V58 H90 V92 Z" fill="#1a1008" stroke="#1a1008" stroke-width="6" stroke-linejoin="round"/><path d="M48 58 V36 H80 V58 Z" fill="#1a1008" stroke="#1a1008" stroke-width="6" stroke-linejoin="round"/><path d="M64 2 C76 12 78 26 64 36 C50 26 52 12 64 2 Z" fill="#1a1008" stroke="#1a1008" stroke-width="6" stroke-linejoin="round"/><path d="M59 68 H69 V82 H59 Z M59 100 H69 V114 H59 Z" fill="#1a1008" stroke="#1a1008" stroke-width="6" stroke-linejoin="round"/></g>
<path d="M26 122 V92 H102 V122 Z" fill="#f4efe4"/><path d="M26 122 V92 H102 V122 Z" fill="url(#hatch)" opacity=".4"/><path d="M26 122 V92 H102 V122 Z" fill="none" stroke="#1a1008" stroke-width="2.4" stroke-linejoin="round"/><path d="M38 92 V58 H90 V92 Z" fill="#f4efe4"/><path d="M38 92 V58 H90 V92 Z" fill="url(#hatch)" opacity=".4"/><path d="M38 92 V58 H90 V92 Z" fill="none" stroke="#1a1008" stroke-width="2.4" stroke-linejoin="round"/><path d="M48 58 V36 H80 V58 Z" fill="#f4efe4"/><path d="M48 58 V36 H80 V58 Z" fill="url(#hatch)" opacity=".4"/><path d="M48 58 V36 H80 V58 Z" fill="none" stroke="#1a1008" stroke-width="2.4" stroke-linejoin="round"/><path d="M64 2 C76 12 78 26 64 36 C50 26 52 12 64 2 Z" fill="#e07a30"/><path d="M64 2 C76 12 78 26 64 36 C50 26 52 12 64 2 Z" fill="none" stroke="#1a1008" stroke-width="2.4" stroke-linejoin="round"/><path d="M59 68 H69 V82 H59 Z M59 100 H69 V114 H59 Z" fill="#b8ae98"/><path d="M59 68 H69 V82 H59 Z M59 100 H69 V114 H59 Z" fill="url(#hatch)" opacity=".7"/><path d="M59 68 H69 V82 H59 Z M59 100 H69 V114 H59 Z" fill="url(#cross)" opacity=".5"/><path d="M59 68 H69 V82 H59 Z M59 100 H69 V114 H59 Z" fill="none" stroke="#1a1008" stroke-width="2.4" stroke-linejoin="round"/>
</svg>
