<!-- Each part a cell of coloured stone or glass, shaded, with thin gold walls between the cells. 128 by 128. Drawn by tools/amulet-sets/. -->
<svg xmlns="http://www.w3.org/2000/svg" viewBox="0 0 128 128" width="128" height="128">
<defs><filter id="sh" filterUnits="userSpaceOnUse" x="-50" y="-50" width="228" height="228"><feDropShadow dx="0" dy="4" stdDeviation="3" flood-color="#190c00" flood-opacity=".5"/></filter><linearGradient id="au" x1="0" y1="0" x2="1" y2="1"><stop offset="0" stop-color="#fff4c0"/><stop offset=".4" stop-color="#e8b83a"/><stop offset="1" stop-color="#8a5a0c"/></linearGradient><radialGradient id="glint" cx=".3" cy=".25" r=".6"><stop offset="0" stop-color="#fff" stop-opacity=".55"/><stop offset=".5" stop-color="#fff" stop-opacity="0"/></radialGradient><linearGradient id="st2" x1="0" y1="0" x2="0" y2="1"><stop offset="0" stop-color="#e0d0ff"/><stop offset=".45" stop-color="#8a5ad0"/><stop offset="1" stop-color="#4a2a80"/></linearGradient></defs>
<g filter="url(#sh)"><path d="M64 6 V26" fill="none" stroke="#2a1703" stroke-width="20" stroke-linecap="round" stroke-linejoin="round"/><path d="M66 20 C76 6 94 8 98 18 C88 26 74 28 66 20 Z" fill="#2a1703" stroke="#2a1703" stroke-width="15" stroke-linejoin="round"/><path d="M44 25 A11 11 0 1 1 44 47 A11 11 0 1 1 44 25 Z M64 25 A11 11 0 1 1 64 47 A11 11 0 1 1 64 25 Z M84 25 A11 11 0 1 1 84 47 A11 11 0 1 1 84 25 Z M34 43 A11 11 0 1 1 34 65 A11 11 0 1 1 34 43 Z M54 43 A11 11 0 1 1 54 65 A11 11 0 1 1 54 43 Z M74 43 A11 11 0 1 1 74 65 A11 11 0 1 1 74 43 Z M94 43 A11 11 0 1 1 94 65 A11 11 0 1 1 94 43 Z M44 61 A11 11 0 1 1 44 83 A11 11 0 1 1 44 61 Z M64 61 A11 11 0 1 1 64 83 A11 11 0 1 1 64 61 Z M84 61 A11 11 0 1 1 84 83 A11 11 0 1 1 84 61 Z M54 79 A11 11 0 1 1 54 101 A11 11 0 1 1 54 79 Z M74 79 A11 11 0 1 1 74 101 A11 11 0 1 1 74 79 Z M64 97 A11 11 0 1 1 64 119 A11 11 0 1 1 64 97 Z" fill="#2a1703" stroke="#2a1703" stroke-width="15" stroke-linejoin="round"/></g>
<g><path d="M64 6 V26" fill="none" stroke="url(#au)" stroke-width="11" stroke-linecap="round" stroke-linejoin="round"/><path d="M66 20 C76 6 94 8 98 18 C88 26 74 28 66 20 Z" fill="url(#au)" stroke="url(#au)" stroke-width="6" stroke-linejoin="round"/><path d="M44 25 A11 11 0 1 1 44 47 A11 11 0 1 1 44 25 Z M64 25 A11 11 0 1 1 64 47 A11 11 0 1 1 64 25 Z M84 25 A11 11 0 1 1 84 47 A11 11 0 1 1 84 25 Z M34 43 A11 11 0 1 1 34 65 A11 11 0 1 1 34 43 Z M54 43 A11 11 0 1 1 54 65 A11 11 0 1 1 54 43 Z M74 43 A11 11 0 1 1 74 65 A11 11 0 1 1 74 43 Z M94 43 A11 11 0 1 1 94 65 A11 11 0 1 1 94 43 Z M44 61 A11 11 0 1 1 44 83 A11 11 0 1 1 44 61 Z M64 61 A11 11 0 1 1 64 83 A11 11 0 1 1 64 61 Z M84 61 A11 11 0 1 1 84 83 A11 11 0 1 1 84 61 Z M54 79 A11 11 0 1 1 54 101 A11 11 0 1 1 54 79 Z M74 79 A11 11 0 1 1 74 101 A11 11 0 1 1 74 79 Z M64 97 A11 11 0 1 1 64 119 A11 11 0 1 1 64 97 Z" fill="url(#au)" stroke="url(#au)" stroke-width="6" stroke-linejoin="round"/></g>
<path d="M64 6 V26" fill="none" stroke="url(#au)" stroke-width="8" stroke-linecap="round"/><path d="M64 6 V26" fill="none" stroke="#236030" stroke-width="3.5" stroke-linecap="round"/><path d="M66 20 C76 6 94 8 98 18 C88 26 74 28 66 20 Z" fill="#4aa050" stroke="url(#au)" stroke-width="2.4" stroke-linejoin="round"/><path d="M66 20 C76 6 94 8 98 18 C88 26 74 28 66 20 Z" fill="url(#glint)"/><path d="M44 25 A11 11 0 1 1 44 47 A11 11 0 1 1 44 25 Z M64 25 A11 11 0 1 1 64 47 A11 11 0 1 1 64 25 Z M84 25 A11 11 0 1 1 84 47 A11 11 0 1 1 84 25 Z M34 43 A11 11 0 1 1 34 65 A11 11 0 1 1 34 43 Z M54 43 A11 11 0 1 1 54 65 A11 11 0 1 1 54 43 Z M74 43 A11 11 0 1 1 74 65 A11 11 0 1 1 74 43 Z M94 43 A11 11 0 1 1 94 65 A11 11 0 1 1 94 43 Z M44 61 A11 11 0 1 1 44 83 A11 11 0 1 1 44 61 Z M64 61 A11 11 0 1 1 64 83 A11 11 0 1 1 64 61 Z M84 61 A11 11 0 1 1 84 83 A11 11 0 1 1 84 61 Z M54 79 A11 11 0 1 1 54 101 A11 11 0 1 1 54 79 Z M74 79 A11 11 0 1 1 74 101 A11 11 0 1 1 74 79 Z M64 97 A11 11 0 1 1 64 119 A11 11 0 1 1 64 97 Z" fill="url(#st2)" stroke="url(#au)" stroke-width="2.4" stroke-linejoin="round"/><path d="M44 25 A11 11 0 1 1 44 47 A11 11 0 1 1 44 25 Z M64 25 A11 11 0 1 1 64 47 A11 11 0 1 1 64 25 Z M84 25 A11 11 0 1 1 84 47 A11 11 0 1 1 84 25 Z M34 43 A11 11 0 1 1 34 65 A11 11 0 1 1 34 43 Z M54 43 A11 11 0 1 1 54 65 A11 11 0 1 1 54 43 Z M74 43 A11 11 0 1 1 74 65 A11 11 0 1 1 74 43 Z M94 43 A11 11 0 1 1 94 65 A11 11 0 1 1 94 43 Z M44 61 A11 11 0 1 1 44 83 A11 11 0 1 1 44 61 Z M64 61 A11 11 0 1 1 64 83 A11 11 0 1 1 64 61 Z M84 61 A11 11 0 1 1 84 83 A11 11 0 1 1 84 61 Z M54 79 A11 11 0 1 1 54 101 A11 11 0 1 1 54 79 Z M74 79 A11 11 0 1 1 74 101 A11 11 0 1 1 74 79 Z M64 97 A11 11 0 1 1 64 119 A11 11 0 1 1 64 97 Z" fill="url(#glint)"/>
</svg>
