<!-- Each part a cell of coloured stone or glass, shaded, with thin gold walls between the cells. 128 by 128. Drawn by tools/amulet-sets/. -->
<svg xmlns="http://www.w3.org/2000/svg" viewBox="0 0 128 128" width="128" height="128">
<defs><filter id="sh" filterUnits="userSpaceOnUse" x="-50" y="-50" width="228" height="228"><feDropShadow dx="0" dy="4" stdDeviation="3" flood-color="#190c00" flood-opacity=".5"/></filter><linearGradient id="au" x1="0" y1="0" x2="1" y2="1"><stop offset="0" stop-color="#fff4c0"/><stop offset=".4" stop-color="#e8b83a"/><stop offset="1" stop-color="#8a5a0c"/></linearGradient><radialGradient id="glint" cx=".3" cy=".25" r=".6"><stop offset="0" stop-color="#fff" stop-opacity=".55"/><stop offset=".5" stop-color="#fff" stop-opacity="0"/></radialGradient><linearGradient id="st2" x1="0" y1="0" x2="0" y2="1"><stop offset="0" stop-color="#ffffff"/><stop offset=".45" stop-color="#f4efe4"/><stop offset="1" stop-color="#b8ae98"/></linearGradient><linearGradient id="st3" x1="0" y1="0" x2="0" y2="1"><stop offset="0" stop-color="#ffffff"/><stop offset=".45" stop-color="#f4efe4"/><stop offset="1" stop-color="#b8ae98"/></linearGradient><linearGradient id="st5" x1="0" y1="0" x2="0" y2="1"><stop offset="0" stop-color="#ffffff"/><stop offset=".45" stop-color="#b8ae98"/><stop offset="1" stop-color="#b8ae98"/></linearGradient></defs>
<g filter="url(#sh)"><path d="M42 46 C20 42 12 22 24 10 M86 46 C108 42 116 22 104 10" fill="none" stroke="#2a1703" stroke-width="23" stroke-linecap="round" stroke-linejoin="round"/><path d="M64 8 A14 14 0 1 1 64 36 A14 14 0 1 1 64 8 Z" fill="#2a1703" stroke="#2a1703" stroke-width="15" stroke-linejoin="round"/><path d="M42 50 L20 56 L40 62 Z M86 50 L108 56 L88 62 Z" fill="#2a1703" stroke="#2a1703" stroke-width="15" stroke-linejoin="round"/><path d="M42 42 C42 36 86 36 86 42 C88 62 82 86 76 102 C72 114 56 114 52 102 C46 86 40 62 42 42 Z" fill="#2a1703" stroke="#2a1703" stroke-width="15" stroke-linejoin="round"/><path d="M53 58 A4 4 0 1 1 53 66 A4 4 0 1 1 53 58 Z M75 58 A4 4 0 1 1 75 66 A4 4 0 1 1 75 58 Z" fill="#2a1703" stroke="#2a1703" stroke-width="15" stroke-linejoin="round"/><path d="M54 98 C54 112 74 112 74 98 Z" fill="#2a1703" stroke="#2a1703" stroke-width="15" stroke-linejoin="round"/></g>
<g><path d="M42 46 C20 42 12 22 24 10 M86 46 C108 42 116 22 104 10" fill="none" stroke="url(#au)" stroke-width="14" stroke-linecap="round" stroke-linejoin="round"/><path d="M64 8 A14 14 0 1 1 64 36 A14 14 0 1 1 64 8 Z" fill="url(#au)" stroke="url(#au)" stroke-width="6" stroke-linejoin="round"/><path d="M42 50 L20 56 L40 62 Z M86 50 L108 56 L88 62 Z" fill="url(#au)" stroke="url(#au)" stroke-width="6" stroke-linejoin="round"/><path d="M42 42 C42 36 86 36 86 42 C88 62 82 86 76 102 C72 114 56 114 52 102 C46 86 40 62 42 42 Z" fill="url(#au)" stroke="url(#au)" stroke-width="6" stroke-linejoin="round"/><path d="M53 58 A4 4 0 1 1 53 66 A4 4 0 1 1 53 58 Z M75 58 A4 4 0 1 1 75 66 A4 4 0 1 1 75 58 Z" fill="url(#au)" stroke="url(#au)" stroke-width="6" stroke-linejoin="round"/><path d="M54 98 C54 112 74 112 74 98 Z" fill="url(#au)" stroke="url(#au)" stroke-width="6" stroke-linejoin="round"/></g>
<path d="M42 46 C20 42 12 22 24 10 M86 46 C108 42 116 22 104 10" fill="none" stroke="url(#au)" stroke-width="11" stroke-linecap="round"/><path d="M42 46 C20 42 12 22 24 10 M86 46 C108 42 116 22 104 10" fill="none" stroke="#f5c83a" stroke-width="6.5" stroke-linecap="round"/><path d="M64 8 A14 14 0 1 1 64 36 A14 14 0 1 1 64 8 Z" fill="#d8482a" stroke="url(#au)" stroke-width="2.4" stroke-linejoin="round"/><path d="M64 8 A14 14 0 1 1 64 36 A14 14 0 1 1 64 8 Z" fill="url(#glint)"/><path d="M42 50 L20 56 L40 62 Z M86 50 L108 56 L88 62 Z" fill="url(#st2)" stroke="url(#au)" stroke-width="2.4" stroke-linejoin="round"/><path d="M42 50 L20 56 L40 62 Z M86 50 L108 56 L88 62 Z" fill="url(#glint)"/><path d="M42 42 C42 36 86 36 86 42 C88 62 82 86 76 102 C72 114 56 114 52 102 C46 86 40 62 42 42 Z" fill="url(#st3)" stroke="url(#au)" stroke-width="2.4" stroke-linejoin="round"/><path d="M42 42 C42 36 86 36 86 42 C88 62 82 86 76 102 C72 114 56 114 52 102 C46 86 40 62 42 42 Z" fill="url(#glint)"/><path d="M53 58 A4 4 0 1 1 53 66 A4 4 0 1 1 53 58 Z M75 58 A4 4 0 1 1 75 66 A4 4 0 1 1 75 58 Z" fill="#1f2a60" stroke="url(#au)" stroke-width="2.4" stroke-linejoin="round"/><path d="M53 58 A4 4 0 1 1 53 66 A4 4 0 1 1 53 58 Z M75 58 A4 4 0 1 1 75 66 A4 4 0 1 1 75 58 Z" fill="url(#glint)"/><path d="M54 98 C54 112 74 112 74 98 Z" fill="url(#st5)" stroke="url(#au)" stroke-width="2.4" stroke-linejoin="round"/><path d="M54 98 C54 112 74 112 74 98 Z" fill="url(#glint)"/>
</svg>
